<svg xmlns="http://www.w3.org/2000/svg" xmlns:xlink="http://www.w3.org/1999/xlink" width="100%" height="100%">
    <style>
        .square, .landscape { visibility: hidden; } .portrait { visibility: visible; } @media (min-aspect-ratio: 1/1) { .portrait, .landscape { visibility: hidden; } .square { visibility: visible; } } @media (min-aspect-ratio: 2/1) { .portrait, .square { visibility: hidden; } .landscape { visibility: visible; } }
    </style>
    <defs>
        <linearGradient id="purpleOrangeGradient" x1="14%" x2="133%" y1="0%" y2="121%">
            <stop offset="0%" stop-color="#C09"/>
            <stop offset="100%" stop-color="#F42"/>
        </linearGradient>
    </defs>
    <symbol id="cz_logo" viewBox="0 0 377 378">
        <path fill="url(#purpleOrangeGradient)" fill-rule="nonzero" d="M98 74c-7 7-33 116-27 131 10 26 70 95 84 100 10 4 63 1 66-5 6-17 72-147 85-162 4-6-18-60-24-63-13-5-178-7-184-1zm262 108zm-1 2a581 581 0 0 0-36 66 3434 3434 0 0 0-38 77c-6 15-15 25-27 33l-16 8-18 5a236 236 0 0 1-95-3c-10-4-17-9-26-16l-15-13A529 529 0 0 1 6 231c-3-8-4-16-5-24l-1-14 2-23A616 616 0 0 1 34 45c4-8 8-14 16-22C63 10 72 7 87 4l13-2 25-1a1557 1557 0 0 1 163 4 71 71 0 0 1 46 23l8 11 9 14a286 286 0 0 1 25 74v17c-2 12-6 24-15 36l-2 4z"/>
    </symbol>
    <symbol id="cz_logo_text" viewBox="0 0 3784 373">
        <path fill="#000" fill-rule="evenodd" d="M266 275l6 1 6 4 33 35c-15 19-33 34-55 43-22 10-48 15-78 15-28 0-53-5-75-14a161 161 0 0 1-91-98 218 218 0 0 1 2-149 175 175 0 0 1 99-97 210 210 0 0 1 150-1 159 159 0 0 1 53 35l-29 39-6 6c-3 2-6 3-11 3l-8-2-9-5a1499 1499 0 0 0-23-13 105 105 0 0 0-40-6c-15 0-29 2-42 8-13 5-24 13-33 23s-16 22-21 37c-5 14-7 30-7 48s2 35 7 50c5 14 12 26 21 36a88 88 0 0 0 68 31l21-2a87 87 0 0 0 48-21l7-5 7-1zm168 27h135v67H350V5h84v297zm268 67h-85V5h85v364zm253-166a363 363 0 0 1 19 40 382 382 0 0 1 19-41l93-184 5-8 6-3 7-2h75v364h-75V160c0-11 0-22 2-33l-97 187a32 32 0 0 1-29 18h-12c-7 0-12-2-17-5s-9-7-12-13l-97-188a312 312 0 0 1 2 34v209h-75V5h74l8 2c2 0 4 2 5 3l6 8 93 185zm284 166V5h134c25 0 46 2 64 7 17 4 32 11 43 20 11 8 19 18 24 31a105 105 0 0 1 5 64c-3 7-6 15-11 21-6 7-12 13-20 18-8 6-17 10-28 15 24 5 42 15 53 28 12 13 18 30 18 50a99 99 0 0 1-35 78c-12 10-27 18-44 24-17 5-36 8-58 8h-145zm84-154v90h60c11 0 20-1 27-4s12-6 17-11c4-5 6-10 8-15a67 67 0 0 0-1-35c-1-6-4-10-9-14-4-4-9-6-16-8-8-3-16-3-27-3h-59zm0-57h44l25-2c8-1 14-4 19-7 6-3 10-8 12-14a62 62 0 0 0 1-44c-2-5-5-10-10-13-4-4-10-6-17-8l-24-2h-50v90zm336 211h-85V5h85v364zM1771 5h9l7 2 6 4 6 7 173 219a461 461 0 0 1-2-39V5h75v364h-44c-7 0-12-1-17-3s-9-6-13-11l-172-217a777 777 0 0 1 2 36v195h-74V5h44zm505 303a144 144 0 0 0 57-11v-55h-36c-6 0-10-2-13-4-3-3-4-7-4-11v-47h129v154a191 191 0 0 1-98 37l-41 2a191 191 0 0 1-133-53 192 192 0 0 1-53-133c0-27 4-52 13-75a169 169 0 0 1 99-97 220 220 0 0 1 123-10 210 210 0 0 1 68 25l25 20-25 37c-2 4-5 6-8 8-4 2-7 3-11 3-5 0-10-1-15-5a263 263 0 0 0-37-17l-20-4-23-1c-16 0-30 2-43 8-12 5-23 13-32 24-9 10-16 22-21 36s-7 30-7 48c0 19 3 36 8 51s13 28 22 38c10 11 21 18 34 24 13 5 27 8 42 8zm448-297v18c0 5-2 11-6 16l-202 285h204v39h-268v-19c0-5 2-10 5-14l203-286h-198V11h262zm395 179c0 27-4 51-13 74a161 161 0 0 1-92 96c-22 8-46 13-72 13s-50-5-72-14a161 161 0 0 1-92-95c-8-23-12-47-12-74s4-51 12-74a162 162 0 0 1 92-96c22-9 46-13 72-13s50 4 72 13a162 162 0 0 1 92 96c9 23 13 47 13 74zm-50 0c0-22-3-42-9-59a111 111 0 0 0-65-72c-16-7-34-10-53-10s-37 3-52 10c-16 6-29 15-40 27s-20 27-26 45c-6 17-9 37-9 59s3 42 9 59c6 18 15 32 26 44s24 22 40 28c15 7 33 10 52 10s37-3 53-10c15-6 28-16 40-28 11-12 19-26 25-44 6-17 9-37 9-59zm141-179l10 1 7 7 207 270a171 171 0 0 1-1-24V11h43v358h-25l-10-2-7-7-207-269a322 322 0 0 1 1 23v255h-43V11h25zm574 0v39h-172v119h139v38h-139v123h172v39h-221V11h221z"/>
    </symbol>
    <symbol id="cz_logo_text_short" viewBox="0 0 616 373">
        <path fill="#000" d="M266 275l6 1 6 4 33 35c-15 19-33 34-55 43-22 10-48 15-78 15-28 0-53-5-75-14a161 161 0 0 1-91-98 218 218 0 0 1 2-149 175 175 0 0 1 99-97 210 210 0 0 1 150-1 159 159 0 0 1 53 35l-29 39-6 6c-3 2-6 3-11 3l-8-2-9-5a1499 1499 0 0 0-23-13 105 105 0 0 0-40-6c-15 0-29 2-42 8-13 5-24 13-33 23s-16 22-21 37c-5 14-7 30-7 48s2 35 7 50c5 14 12 26 21 36a88 88 0 0 0 68 31l21-2a87 87 0 0 0 48-21l7-5 7-1zM616 5v30l-2 13-6 12-171 244h174v65H330v-32c0-4 0-8 2-12l5-10L509 70H344V5h272z"/>
    </symbol>
    <symbol id="portrait" viewBox="0 0 616 828">
        <use width="377" height="378" x="0" y="0" xlink:href="#cz_logo"/>
        <use width="616" height="373" x="0" y="440" xlink:href="#cz_logo_text_short"/>
    </symbol>
    <symbol id="landscape" viewBox="0 0 4248 378">
        <use width="377" height="378" x="0" y="0" xlink:href="#cz_logo"/>
        <use width="3784" height="373" x="464" y="5" xlink:href="#cz_logo_text"/>
    </symbol>
    <use width="100%" height="100%" class="portrait" xlink:href="#portrait"/>
    <use width="100%" height="100%" class="landscape" xlink:href="#landscape"/>
    <use width="100%" height="100%" class="square" xlink:href="#cz_logo"/>
</svg>
